<svg width="98" height="16" viewBox="0 0 98 16" fill="none" xmlns="http://www.w3.org/2000/svg">
<g clip-path="url(#clip0_752_14425)">
<path fill-rule="evenodd" clip-rule="evenodd" d="M20.0034 0.0126157L0.129033 7.93244C0.0891417 7.94904 0.0558411 7.97837 0.0343076 8.01589C0.0117417 8.04979 -0.000201261 8.08968 1.04103e-05 8.13043C-0.000403888 8.17121 0.0115566 8.21116 0.0343076 8.24497C0.0571765 8.27944 0.0903296 8.30578 0.129033 8.32025L6.02977 10.4524C6.06135 10.4651 6.09577 10.469 6.1294 10.4638C6.1624 10.4586 6.19372 10.4457 6.22086 10.4262L17.4148 2.25438C17.4176 2.25317 17.4207 2.25254 17.4238 2.25254C17.4269 2.25254 17.4299 2.25317 17.4328 2.25438C17.439 2.25605 17.4447 2.25945 17.4491 2.2642C17.4502 2.26679 17.4507 2.26957 17.4507 2.27238C17.4507 2.27519 17.4502 2.27797 17.4491 2.28056C17.4514 2.28635 17.4514 2.29278 17.4491 2.29856L7.54048 10.9335C7.51763 10.9534 7.49926 10.9779 7.48659 11.0055C7.47472 11.0333 7.46915 11.0635 7.47025 11.0938V15.6919C7.46907 15.7335 7.4817 15.7744 7.50618 15.8081C7.53068 15.8423 7.56479 15.8685 7.60418 15.8833C7.64361 15.8974 7.68644 15.8986 7.7266 15.8868C7.76676 15.8751 7.80221 15.851 7.82792 15.8179L10.6877 12.2867C10.7143 12.2544 10.7502 12.231 10.7905 12.2196C10.8309 12.2065 10.8743 12.2065 10.9147 12.2196L14.56 13.5434C14.6081 13.563 14.6621 13.563 14.7102 13.5434C14.7575 13.5216 14.7953 13.4832 14.8164 13.4354L20.268 0.277701C20.2826 0.241354 20.286 0.201463 20.2778 0.163158C20.2709 0.124024 20.2521 0.0879964 20.2239 0.0600692C20.1966 0.0312406 20.1613 0.0112991 20.1226 0.00283636C20.0838 -0.00562636 20.0435 -0.00221897 20.0067 0.0126157" fill="#131416"/>
<path d="M26.2848 1.6084H24.4883L24.5144 12.5718H26.3109L26.2848 1.6084Z" fill="#131416"/>
<path d="M31.9403 4.68311C31.0322 4.68311 30.2009 5.01037 29.68 5.6649V4.84674H27.9863L28.0059 12.5702H29.6995L29.6865 7.45668C29.8445 7.08766 30.1086 6.77416 30.4451 6.55616C30.7817 6.33816 31.1754 6.22556 31.5761 6.23271C32.654 6.23271 33.2713 7.00014 33.2746 8.22084L33.2844 12.5702H34.978L34.9666 7.95085C34.9666 5.95453 33.7874 4.68965 31.9403 4.69456" fill="#131416"/>
<path d="M41.9744 4.81399L39.6291 10.227L37.2756 4.82708H35.3975L38.8958 12.5424H40.3902L43.864 4.80908L41.9744 4.81399Z" fill="#131416"/>
<path d="M48.0685 4.64564C47.0815 4.66201 46.1359 5.04526 45.4151 5.72097C44.6943 6.39669 44.2498 7.31665 44.168 8.30224C44.0862 9.28783 44.3728 10.2687 44.9723 11.0545C45.5717 11.8402 46.4412 12.3748 47.4119 12.5543C48.3826 12.7338 49.3853 12.5455 50.2252 12.026C51.0651 11.5065 51.6824 10.6928 51.9572 9.74287C52.232 8.79297 52.1446 7.77465 51.7122 6.88563C51.2797 5.99662 50.5329 5.30034 49.6168 4.93199C49.125 4.73365 48.5985 4.63627 48.0685 4.64564V4.64564ZM48.0832 11.1026C46.7146 11.1026 45.7559 10.0422 45.7543 8.66773C45.7526 7.29321 46.6983 6.22469 48.0718 6.21324C49.4453 6.20178 50.3844 7.27521 50.3877 8.64973C50.3909 10.0242 49.4388 11.0911 48.0881 11.0944L48.0832 11.1026Z" fill="#131416"/>
<path d="M55.0091 4.77637H53.3154L53.3367 12.4998H55.0287L55.0091 4.77637Z" fill="#131416"/>
<path d="M55.0091 1.79834H53.3154V3.36594H55.0091V1.79834Z" fill="#131416"/>
<path d="M60.4084 6.19024C60.8533 6.18714 61.2896 6.31331 61.6644 6.55349C62.0391 6.79366 62.3364 7.13754 62.5202 7.54348L63.99 6.73841C63.6458 6.08584 63.1278 5.5416 62.4936 5.16609C61.8593 4.79059 61.1336 4.59852 60.397 4.61118C58.0942 4.61446 56.3467 6.35387 56.3467 8.6431C56.3467 10.9323 58.1187 12.6537 60.4297 12.6505C61.1661 12.6607 61.8909 12.4659 62.5233 12.0877C63.1556 11.7095 63.6708 11.1628 64.0113 10.5085L62.5316 9.70344C62.3505 10.1109 62.0551 10.4568 61.6813 10.6991C61.3076 10.9414 60.8716 11.0696 60.4264 11.0681C59.0578 11.0681 58.0844 10.0078 58.0811 8.63328C58.0779 7.25876 59.0464 6.19024 60.4166 6.17879" fill="#131416"/>
<path d="M68.9064 4.59155C66.566 4.59155 64.8854 6.34897 64.8985 8.62019C64.8985 10.9618 66.5872 12.6325 68.9227 12.6276C70.5314 12.6276 71.74 11.9239 72.4276 10.8276L71.1406 9.90471C70.7421 10.5838 70.0153 11.0812 68.9423 11.0845C67.6652 11.0845 66.646 10.2549 66.566 8.98836L72.6089 8.97364C72.6236 8.72819 72.6236 8.58746 72.6236 8.41729C72.6236 5.93334 70.9201 4.59319 68.9048 4.59646L68.9064 4.59155ZM66.6362 7.74966C66.8649 6.60424 67.8611 6.02988 68.8492 6.02988C69.8373 6.02988 70.7274 6.62714 70.9152 7.73821L66.6362 7.74966Z" fill="#131416"/>
<path d="M93.9902 4.53088H93.9298C93.4033 4.52675 92.8812 4.62756 92.3938 4.82744C91.9065 5.02732 91.4637 5.32229 91.0913 5.6952C90.7188 6.0681 90.424 6.51148 90.2241 6.99957C90.0242 7.48765 89.9232 8.01068 89.9269 8.53825V8.55952C89.9236 9.08834 90.0255 9.61251 90.2267 10.1014C90.4279 10.5903 90.7244 11.0341 91.0987 11.4069C91.4731 11.7797 91.9179 12.074 92.407 12.2726C92.8962 12.4712 93.42 12.5701 93.9478 12.5636H93.9772C94.5046 12.5709 95.0281 12.4725 95.517 12.2741C96.0059 12.0757 96.4502 11.7814 96.8239 11.4084C97.1973 11.0358 97.4931 10.5924 97.6938 10.1042C97.8946 9.6159 97.9964 9.09249 97.9932 8.56443V8.53825C97.9963 8.01146 97.8948 7.48932 97.6946 7.00221C97.4944 6.51509 97.1995 6.07273 96.8271 5.70086C96.4551 5.3283 96.0129 5.03358 95.5261 4.83384C95.0394 4.63411 94.5179 4.53335 93.9919 4.53743L93.9902 4.53088ZM93.9707 10.9944C92.6004 10.9944 91.645 9.93403 91.6417 8.56116C91.6384 7.18828 92.5906 6.11648 93.9576 6.10667C95.3246 6.09685 96.2702 7.16864 96.2735 8.54316C96.2767 9.91767 95.3246 10.9846 93.9707 10.9878V10.9944Z" fill="#131416"/>
<path d="M86.9951 4.70287V5.41303C86.4545 4.85832 85.6526 4.55233 84.7299 4.55396C82.4989 4.55396 80.8853 6.27538 80.869 8.44187C80.8583 8.95445 80.9512 9.4639 81.142 9.93962C81.3327 10.4153 81.6175 10.8475 81.9792 11.2102C82.3409 11.5729 82.772 11.8586 83.2466 12.0501C83.7213 12.2417 84.2297 12.3351 84.7413 12.3249C85.6673 12.3249 86.466 11.9976 87.0033 11.4233V12.338C87.0033 13.5407 86.35 14.1837 85.4648 14.3801C83.26 14.7761 81.8897 14.1101 81.8897 14.1101L81.3491 15.4977C82.1364 15.9886 84.578 16.1293 85.7114 15.879C87.3446 15.591 88.7034 14.5208 88.6985 12.3527L88.6838 4.70123L86.9951 4.70287ZM87.0065 9.6773C86.788 10.0232 86.4825 10.3055 86.1208 10.4959C85.7591 10.6863 85.3538 10.7781 84.9455 10.7622C83.6079 10.7622 82.6345 9.76403 82.6181 8.43696C82.6098 8.12835 82.6654 7.82135 82.7815 7.53535C82.8944 7.24872 83.0644 6.98815 83.2812 6.76955C83.498 6.55092 83.7569 6.37872 84.0421 6.26339C84.3274 6.14807 84.633 6.09202 84.9406 6.09865C85.3466 6.0825 85.75 6.1716 86.1116 6.35736C86.4733 6.54311 86.781 6.81923 87.0049 7.15899L87.0065 9.6773Z" fill="#131416"/>
<path d="M75.7724 10.9945L78.0817 7.85273C78.5472 7.24238 79.2903 6.2164 79.4291 5.99222C80.0726 4.92697 80.151 3.80773 79.5925 2.69012C79.1368 1.78032 78.3316 1.33687 77.3403 1.21742C75.9504 1.0407 74.505 1.68541 73.8518 3.00429C73.6998 3.29139 73.6003 3.60337 73.5578 3.92554L75.0391 4.25281C75.062 4.18899 75.0832 4.13663 75.0979 4.08917C75.1683 3.81956 75.2982 3.56921 75.4779 3.35654C75.6577 3.14386 75.8828 2.97429 76.1366 2.86029C76.6772 2.61321 77.453 2.70975 77.8711 3.07138C78.5717 3.68173 78.5619 4.70771 78.054 5.36224C77.9691 5.47351 73.5855 11.0697 73.5855 11.0697C73.5443 11.1186 73.5223 11.1809 73.5235 11.2448V12.4835L80.0285 12.4672V10.9945H75.7724Z" fill="#131416"/>
</g>
<defs>
<clipPath id="clip0_752_14425">
<rect width="98" height="16" fill="white"/>
</clipPath>
</defs>
</svg>
