<svg width="98" height="16" viewBox="0 0 98 16" fill="none" xmlns="http://www.w3.org/2000/svg">
<path fill-rule="evenodd" clip-rule="evenodd" d="M20.0034 0.0128598L0.129033 7.93268C0.0891417 7.94928 0.0558411 7.97862 0.0343076 8.01613C0.0117417 8.05004 -0.000201261 8.08992 1.04103e-05 8.13068C-0.000403888 8.17146 0.0115566 8.2114 0.0343076 8.24522C0.0571765 8.27968 0.0903296 8.30603 0.129033 8.32049L6.02977 10.4526C6.06135 10.4653 6.09577 10.4693 6.1294 10.4641C6.1624 10.4589 6.19372 10.446 6.22086 10.4264L17.4148 2.25463C17.4176 2.25341 17.4207 2.25279 17.4238 2.25279C17.4269 2.25279 17.4299 2.25341 17.4328 2.25463C17.439 2.25629 17.4447 2.25969 17.4491 2.26445C17.4502 2.26704 17.4507 2.26982 17.4507 2.27263C17.4507 2.27544 17.4502 2.27822 17.4491 2.28081C17.4514 2.28659 17.4514 2.29302 17.4491 2.29881L7.54048 10.9337C7.51763 10.9536 7.49926 10.9782 7.48659 11.0057C7.47472 11.0336 7.46915 11.0638 7.47025 11.0941V15.6921C7.46907 15.7338 7.4817 15.7746 7.50618 15.8083C7.53068 15.8426 7.56479 15.8688 7.60418 15.8836C7.64361 15.8976 7.68644 15.8988 7.7266 15.8871C7.76676 15.8753 7.80221 15.8512 7.82792 15.8181L10.6877 12.2869C10.7143 12.2546 10.7502 12.2312 10.7905 12.2199C10.8309 12.2067 10.8743 12.2067 10.9147 12.2199L14.56 13.5436C14.6081 13.5633 14.6621 13.5633 14.7102 13.5436C14.7575 13.5218 14.7953 13.4834 14.8164 13.4356L20.268 0.277945C20.2826 0.241598 20.286 0.201707 20.2778 0.163402C20.2709 0.124268 20.2521 0.0882405 20.2239 0.0603133C20.1966 0.0314847 20.1613 0.0115432 20.1226 0.0030805C20.0838 -0.00538222 20.0435 -0.00197483 20.0067 0.0128598" fill="white"/>
<path d="M26.2848 1.60889H24.4883L24.5144 12.5723H26.3109L26.2848 1.60889Z" fill="white"/>
<path d="M31.9403 4.68359C31.0322 4.68359 30.2009 5.01086 29.68 5.66539V4.84723H27.9863L28.0059 12.5707H29.6995L29.6865 7.45717C29.8445 7.08815 30.1086 6.77465 30.4451 6.55665C30.7817 6.33865 31.1754 6.22605 31.5761 6.23319C32.654 6.23319 33.2713 7.00063 33.2746 8.22133L33.2844 12.5707H34.978L34.9666 7.95134C34.9666 5.95502 33.7874 4.69014 31.9403 4.69505" fill="white"/>
<path d="M41.9744 4.81448L39.6291 10.2274L37.2756 4.82757H35.3975L38.8958 12.5429H40.3902L43.864 4.80957L41.9744 4.81448Z" fill="white"/>
<path d="M48.0685 4.64564C47.0815 4.66201 46.1359 5.04526 45.4151 5.72097C44.6943 6.39669 44.2498 7.31665 44.168 8.30224C44.0862 9.28783 44.3728 10.2687 44.9723 11.0545C45.5717 11.8402 46.4412 12.3748 47.4119 12.5543C48.3826 12.7338 49.3853 12.5455 50.2252 12.026C51.0651 11.5065 51.6824 10.6928 51.9572 9.74287C52.232 8.79297 52.1446 7.77465 51.7122 6.88563C51.2797 5.99662 50.5329 5.30034 49.6168 4.93199C49.125 4.73365 48.5985 4.63627 48.0685 4.64564V4.64564ZM48.0832 11.1026C46.7146 11.1026 45.7559 10.0422 45.7543 8.66773C45.7526 7.29321 46.6983 6.22469 48.0718 6.21324C49.4453 6.20178 50.3844 7.27521 50.3877 8.64973C50.3909 10.0242 49.4388 11.0911 48.0881 11.0944L48.0832 11.1026Z" fill="white"/>
<path d="M55.0091 4.77686H53.3154L53.3367 12.5003H55.0287L55.0091 4.77686Z" fill="white"/>
<path d="M55.0091 1.79834H53.3154V3.36594H55.0091V1.79834Z" fill="white"/>
<path d="M60.4084 6.19048C60.8533 6.18738 61.2896 6.31356 61.6644 6.55373C62.0391 6.7939 62.3364 7.13778 62.5202 7.54373L63.99 6.73865C63.6458 6.08608 63.1278 5.54184 62.4936 5.16634C61.8593 4.79084 61.1336 4.59876 60.397 4.61143C58.0942 4.6147 56.3467 6.35412 56.3467 8.64334C56.3467 10.9326 58.1187 12.654 60.4297 12.6507C61.1661 12.661 61.8909 12.4661 62.5233 12.0879C63.1556 11.7098 63.6708 11.163 64.0113 10.5088L62.5316 9.70368C62.3505 10.1111 62.0551 10.457 61.6813 10.6993C61.3076 10.9416 60.8716 11.0698 60.4264 11.0684C59.0578 11.0684 58.0844 10.008 58.0811 8.63352C58.0779 7.25901 59.0464 6.19048 60.4166 6.17903" fill="white"/>
<path d="M68.9064 4.5918C66.566 4.5918 64.8854 6.34921 64.8985 8.62043C64.8985 10.962 66.5872 12.6327 68.9227 12.6278C70.5314 12.6278 71.74 11.9242 72.4276 10.8278L71.1406 9.90495C70.7421 10.584 70.0153 11.0815 68.9423 11.0847C67.6652 11.0847 66.646 10.2551 66.566 8.98861L72.6089 8.97388C72.6236 8.72843 72.6236 8.58771 72.6236 8.41753C72.6236 5.93359 70.9201 4.59343 68.9048 4.59671L68.9064 4.5918ZM66.6362 7.74991C66.8649 6.60448 67.8611 6.03013 68.8492 6.03013C69.8373 6.03013 70.7274 6.62739 70.9152 7.73845L66.6362 7.74991Z" fill="white"/>
<path d="M93.9902 4.53137H93.9298C93.4033 4.52724 92.8812 4.62804 92.3938 4.82793C91.9065 5.02781 91.4637 5.32278 91.0913 5.69568C90.7188 6.06858 90.424 6.51197 90.2241 7.00005C90.0242 7.48814 89.9232 8.01117 89.9269 8.53873V8.56001C89.9236 9.08883 90.0255 9.613 90.2267 10.1019C90.4279 10.5908 90.7244 11.0346 91.0987 11.4074C91.4731 11.7802 91.9179 12.0745 92.407 12.2731C92.8962 12.4717 93.42 12.5706 93.9478 12.5641H93.9772C94.5046 12.5714 95.0281 12.473 95.517 12.2746C96.0059 12.0762 96.4502 11.7818 96.8239 11.4089C97.1973 11.0363 97.4931 10.5929 97.6938 10.1047C97.8946 9.61639 97.9964 9.09298 97.9932 8.56492V8.53873C97.9963 8.01195 97.8948 7.48981 97.6946 7.00269C97.4944 6.51558 97.1995 6.07322 96.8271 5.70135C96.4551 5.32878 96.0129 5.03406 95.5261 4.83433C95.0394 4.6346 94.5179 4.53384 93.9919 4.53792L93.9902 4.53137ZM93.9707 10.9949C92.6004 10.9949 91.645 9.93452 91.6417 8.56164C91.6384 7.18877 92.5906 6.11697 93.9576 6.10715C95.3246 6.09734 96.2702 7.16913 96.2735 8.54364C96.2767 9.91816 95.3246 10.985 93.9707 10.9883V10.9949Z" fill="white"/>
<path d="M86.9951 4.70311V5.41328C86.4545 4.85856 85.6526 4.55257 84.7299 4.55421C82.4989 4.55421 80.8853 6.27562 80.869 8.44212C80.8583 8.95469 80.9512 9.46414 81.142 9.93987C81.3327 10.4156 81.6175 10.8478 81.9792 11.2104C82.3409 11.5731 82.772 11.8588 83.2466 12.0504C83.7213 12.2419 84.2297 12.3354 84.7413 12.3251C85.6673 12.3251 86.466 11.9979 87.0033 11.4235V12.3382C87.0033 13.5409 86.35 14.184 85.4648 14.3803C83.26 14.7763 81.8897 14.1104 81.8897 14.1104L81.3491 15.498C82.1364 15.9889 84.578 16.1296 85.7114 15.8792C87.3446 15.5912 88.7034 14.5211 88.6985 12.3529L88.6838 4.70148L86.9951 4.70311ZM87.0065 9.67754C86.788 10.0234 86.4825 10.3057 86.1208 10.4961C85.7591 10.6865 85.3538 10.7783 84.9455 10.7624C83.6079 10.7624 82.6345 9.76427 82.6181 8.43721C82.6098 8.12859 82.6654 7.82159 82.7815 7.53559C82.8944 7.24896 83.0644 6.98839 83.2812 6.76979C83.498 6.55117 83.7569 6.37897 84.0421 6.26364C84.3274 6.14831 84.633 6.09226 84.9406 6.0989C85.3466 6.08274 85.75 6.17185 86.1116 6.3576C86.4733 6.54336 86.781 6.81947 87.0049 7.15924L87.0065 9.67754Z" fill="white"/>
<path d="M75.7724 10.9947L78.0817 7.85297C78.5472 7.24262 79.2903 6.21664 79.4291 5.99247C80.0726 4.92722 80.151 3.80797 79.5925 2.69036C79.1368 1.78056 78.3316 1.33712 77.3403 1.21767C75.9504 1.04094 74.505 1.68566 73.8518 3.00453C73.6998 3.29164 73.6003 3.60362 73.5578 3.92579L75.0391 4.25305C75.062 4.18923 75.0832 4.13687 75.0979 4.08942C75.1683 3.81981 75.2982 3.56945 75.4779 3.35678C75.6577 3.14411 75.8828 2.97453 76.1366 2.86054C76.6772 2.61345 77.453 2.71 77.8711 3.07162C78.5717 3.68197 78.5619 4.70795 78.054 5.36248C77.9691 5.47375 73.5855 11.07 73.5855 11.07C73.5443 11.1189 73.5223 11.1811 73.5235 11.2451V12.4838L80.0285 12.4674V10.9947H75.7724Z" fill="white"/>
</svg>
