<svg width="72" height="16" viewBox="0 0 72 16" fill="none" xmlns="http://www.w3.org/2000/svg">
<g clip-path="url(#clip0_765_14690)">
<path d="M17.6698 3.3331L13.3669 0.391129C13.0002 0.140834 12.5614 0.00634766 12.1114 0.00634766C11.6614 0.00634766 11.2226 0.140834 10.8559 0.391129L9.45509 1.34792L7.93204 2.38619L6.55307 3.3331C6.27225 3.52558 6.04327 3.77951 5.88511 4.07387C5.72695 4.36822 5.64416 4.69451 5.64361 5.0257V10.9874C5.64381 11.0643 5.62531 11.1402 5.58958 11.209C5.55385 11.2778 5.50188 11.3376 5.4378 11.3837L3.94434 12.3714L5.37477 13.3467L6.38327 12.6788C6.66415 12.4866 6.89319 12.233 7.05137 11.9388C7.20954 11.6446 7.29229 11.3185 7.29272 10.9874V5.0257C7.29291 4.94663 7.31259 4.86872 7.35015 4.79834C7.38771 4.72796 7.44209 4.66711 7.50883 4.62076L11.8117 1.68002C11.8991 1.61991 12.0039 1.58759 12.1114 1.58759C12.2189 1.58759 12.3238 1.61991 12.4111 1.68002L13.5341 2.44669L14.9633 3.42199L16.7153 4.61952C16.7827 4.66531 16.8377 4.72602 16.8755 4.7965C16.9134 4.86698 16.933 4.94517 16.9327 5.02446V10.9874C16.9328 11.0665 16.9131 11.1444 16.8753 11.2147C16.8374 11.285 16.7826 11.3455 16.7153 11.3911L12.4111 14.3208C12.3166 14.3833 12.2035 14.4147 12.0887 14.4105C11.974 14.4063 11.8637 14.3666 11.7744 14.2973L10.955 13.8035L9.51298 14.8022L10.8559 15.6146C11.2226 15.8651 11.6614 15.9996 12.1114 15.9996C12.5614 15.9996 13.0003 15.8651 13.3669 15.6146L17.6698 12.6738C17.9499 12.4822 18.1786 12.2293 18.3367 11.936C18.4948 11.6428 18.578 11.3176 18.5792 10.9874V5.0257C18.5791 4.69444 18.4965 4.368 18.3383 4.07358C18.1801 3.77917 17.9509 3.52529 17.6698 3.3331V3.3331Z" fill="white"/>
<path d="M10.6446 13.6176L12.0262 12.6732C12.3062 12.4814 12.5347 12.2284 12.6928 11.9352C12.8509 11.642 12.9341 11.3169 12.9356 10.9868V5.02503C12.9354 4.94784 12.954 4.87168 12.9899 4.80264C13.0259 4.7336 13.0782 4.67362 13.1427 4.6275L14.6323 3.63984L13.2032 2.66454L12.196 3.3312C11.9152 3.52367 11.6864 3.77763 11.5284 4.07201C11.3705 4.36638 11.288 4.69268 11.2878 5.02379V10.9868C11.2879 11.0658 11.2682 11.1438 11.2303 11.214C11.1925 11.2843 11.1377 11.3448 11.0704 11.3905L6.76753 14.3201C6.68013 14.3802 6.57532 14.4125 6.46781 14.4125C6.36029 14.4125 6.25548 14.3802 6.16809 14.3201L5.04509 13.5534L3.61852 12.5818L1.8665 11.3843C1.80012 11.3392 1.7458 11.2797 1.70801 11.2106C1.67023 11.1415 1.65004 11.0648 1.64911 10.9868V5.02503C1.64867 4.94585 1.66807 4.86773 1.70568 4.79725C1.74329 4.72678 1.79801 4.66601 1.86522 4.62009L6.16809 1.67935C6.26351 1.61596 6.37778 1.58398 6.49375 1.58821C6.60972 1.59244 6.72113 1.63265 6.81126 1.70281L7.60623 2.18552L9.06625 1.19787L7.72844 0.387992C7.36181 0.137523 6.92298 0.00292969 6.47295 0.00292969C6.02293 0.00292969 5.58409 0.137523 5.21747 0.387992L0.909455 3.33244C0.628326 3.52462 0.399117 3.7785 0.240922 4.07292C0.0827272 4.36733 0.000126015 4.69377 0 5.02503V10.9868C0.000231532 11.318 0.0828782 11.6444 0.241064 11.9388C0.399251 12.2332 0.628403 12.4871 0.909455 12.6793L5.21232 15.6201C5.57894 15.8706 6.01778 16.0052 6.46781 16.0052C6.91783 16.0052 7.35667 15.8706 7.72329 15.6201L9.1936 14.6152L10.6433 13.6275L10.6446 13.6176Z" fill="white"/>
<path d="M28.5109 1.88037H25.3027V3.70383C25.3028 3.90959 25.2192 4.10726 25.0698 4.25482C24.9204 4.40237 24.7169 4.48816 24.5026 4.49395L23.6484 4.51494V6.94827H25.3027V11.3162C25.3027 14.0767 26.4411 14.9705 31.2007 14.673V12.1668C28.7797 12.4051 28.5932 11.7693 28.5932 10.9952V6.94457H31.2007V4.46185H28.5109V1.88037Z" fill="white"/>
<path d="M41.4192 0.221191C40.2614 0.221191 39.626 0.468106 39.626 1.78045C39.626 3.0928 40.2589 3.33971 41.4192 3.33971C42.5602 3.33971 43.1557 3.0607 43.1557 1.78045C43.1557 0.463167 42.5602 0.221191 41.4192 0.221191Z" fill="white"/>
<path d="M43.0364 4.46191H39.7871V14.5903H43.0364V4.46191Z" fill="white"/>
<path d="M51.3951 4.28265C49.7601 4.28265 48.7259 4.81845 48.2294 5.4345V0.549316H45.0225V14.5901C45.0585 14.5901 45.0932 14.5901 45.1292 14.5826H45.2733C45.6324 14.5824 45.9839 14.4836 46.2863 14.2979C46.5888 14.1122 46.8296 13.8473 46.9803 13.5345V13.5271C47.0064 13.474 47.0462 13.4282 47.0959 13.394C47.1456 13.3598 47.2035 13.3383 47.2642 13.3315C47.325 13.3247 47.3865 13.3328 47.4431 13.3552C47.4996 13.3775 47.5493 13.4133 47.5875 13.4592C48.2023 14.174 49.0591 14.6012 50.2759 14.7172C50.5287 14.7508 50.7836 14.7681 51.0388 14.7691C52.8795 14.7691 54.0501 14.0222 54.7512 12.9419C54.7898 12.8839 54.8284 12.8185 54.8644 12.7641L54.9364 12.6333C54.9892 12.537 55.038 12.4394 55.0844 12.3382L55.1165 12.2641C55.1705 12.1407 55.2181 12.0172 55.2632 11.8938C55.2632 11.8802 55.2722 11.8666 55.276 11.853C55.321 11.7209 55.3622 11.5864 55.3969 11.4493C55.3969 11.432 55.4059 11.4172 55.4098 11.4012C55.4381 11.2864 55.4638 11.1703 55.4857 11.0518C55.4947 11.0049 55.505 10.958 55.514 10.911C55.523 10.8641 55.5243 10.837 55.5307 10.7999C55.5998 10.3718 55.6355 9.93933 55.6375 9.50611C55.6375 6.90364 54.665 4.28265 51.3951 4.28265ZM50.2991 12.2061C48.4982 12.2061 48.2088 11.1147 48.2088 9.50611C48.2088 7.95672 48.4365 6.82463 50.2785 6.82463C52.037 6.82463 52.3264 7.93574 52.3264 9.50611C52.3264 11.0938 52.037 12.2061 50.2991 12.2061V12.2061Z" fill="white"/>
<path d="M61.7616 4.28271C57.9128 4.28271 57.0021 5.7716 57.0021 7.93704H60.1472C60.1472 7.12222 60.519 6.52716 61.844 6.52716C63.2512 6.52716 63.7066 7.14444 63.7066 8.31358L60.9332 8.59136C57.9746 8.89012 56.5879 9.70247 56.5879 11.6506C56.5879 13.7753 58.4917 14.7691 60.9744 14.7691C62.581 14.7691 63.6449 14.321 64.3729 13.4741C64.411 13.4279 64.4608 13.3919 64.5175 13.3693C64.5742 13.3468 64.6359 13.3385 64.6969 13.3454C64.7578 13.3522 64.8159 13.3738 64.8657 13.4082C64.9155 13.4426 64.9553 13.4887 64.9814 13.542C65.1321 13.8548 65.3729 14.1197 65.6753 14.3054C65.9778 14.4911 66.3293 14.5899 66.6884 14.5901H66.9341V8.85062C66.9315 6.22839 66.2639 4.28271 61.7616 4.28271ZM61.633 12.5839C60.4534 12.5839 59.9607 12.1469 59.9607 11.5309C59.9607 11.0543 60.3543 10.6975 61.633 10.5778L63.7027 10.3395C63.6834 11.5914 63.0827 12.5839 61.633 12.5839V12.5839Z" fill="white"/>
<path d="M71.9999 0.549316H68.7725V14.5901H71.9999V0.549316Z" fill="white"/>
<path d="M38.6835 4.2666C38.5793 4.2666 38.4828 4.27401 38.3825 4.27771C37.5606 4.23036 36.7458 4.4476 36.0671 4.895C35.7738 5.07638 35.5113 5.29998 35.2888 5.55796C35.2504 5.60377 35.2005 5.63946 35.1438 5.66169C35.0871 5.68392 35.0255 5.69196 34.9646 5.68504C34.9038 5.67813 34.8458 5.6565 34.7961 5.62218C34.7464 5.58786 34.7065 5.54197 34.6804 5.48882V5.48882C34.5285 5.17558 34.2863 4.91068 33.9824 4.72556C33.6785 4.54044 33.3256 4.44285 32.9656 4.44438H32.7199V4.46784H32.7109V14.5913H35.9384V9.40611C35.9384 8.05549 36.3115 6.76537 38.7324 7.00364V4.30241H38.6887C38.6874 4.28018 38.6861 4.2666 38.6835 4.2666Z" fill="white"/>
</g>
<defs>
<clipPath id="clip0_765_14690">
<rect width="72" height="16" fill="white"/>
</clipPath>
</defs>
</svg>
