<svg width="122" height="12" viewBox="0 0 122 12" fill="none" xmlns="http://www.w3.org/2000/svg">
<path d="M12.3373 4.08023C12.3373 2.08996 11.007 0.282143 8.48496 0.267463C6.78796 0.267463 1.69699 0.250685 0 0.250685V11.7708H2.01884V7.92655H7.35948L10.4804 11.7708H12.8796V11.624L9.63774 7.69586C11.6722 7.25124 12.3451 5.65735 12.3451 4.08023H12.3373ZM2.02664 5.96774V2.2871H8.49276C9.76062 2.2871 10.3263 3.20778 10.3263 4.12847C10.3263 5.04915 9.77623 5.96983 8.49276 5.96983L2.02664 5.96774Z" fill="white"/>
<path d="M26.3229 0.25488C24.6415 0.25488 19.5661 0.271658 17.8847 0.271658V11.775H19.9016V8.38584H26.3229C31.566 8.38584 31.5504 0.250685 26.3229 0.250685V0.25488ZM26.3229 6.39767H19.9016V2.32065H26.3229C28.8898 2.32065 28.9054 6.39767 26.3229 6.39767Z" fill="white"/>
<path d="M63.1982 5.82296C64.1911 5.34479 64.589 4.49122 64.589 3.602C64.589 1.29504 63.0149 0.267397 60.9044 0.267397H52.435V11.7707H60.9044C63.1202 11.7707 64.9089 10.9507 64.9089 8.38578C64.9089 7.66223 64.4505 6.23192 63.1982 5.82296ZM54.4207 2.2388H60.9024C62.1878 2.2388 62.5838 3.12592 62.5838 3.65233C62.5838 4.30876 62.1722 4.8855 60.9024 4.8855H54.4227L54.4207 2.2388ZM60.9024 9.75108H54.4227V6.79188H60.9044C61.7295 6.79188 62.9076 7.33297 62.9076 8.369C62.9076 9.45327 61.7373 9.75108 60.9044 9.75108" fill="white"/>
<path d="M71.7554 0.267397H69.7366V11.7728H80.652V9.76575H71.7554V0.267397Z" fill="white"/>
<path d="M87.4985 0.267397H85.4953V11.7728H87.4985V0.267397Z" fill="white"/>
<path d="M102.625 8.59344C102.336 8.90217 102.008 9.16489 101.65 9.37361C101.247 9.60346 100.819 9.77819 100.376 9.89372C99.8728 10.0234 99.3566 10.0868 98.8391 10.0825C98.1603 10.0945 97.4845 9.98387 96.8397 9.7553C96.3067 9.56238 95.8138 9.25963 95.3885 8.86397C95.0072 8.5016 94.7049 8.05336 94.503 7.55111C94.306 7.06113 94.2044 6.53295 94.2045 5.99915C94.2034 5.45983 94.305 4.92597 94.503 4.43042C94.7049 3.92818 95.0072 3.47993 95.3885 3.11755C95.814 2.72189 96.3087 2.42169 96.8436 2.23462C97.4886 2.01084 98.1634 1.90313 98.841 1.91584C99.3344 1.91336 99.8265 1.97106 100.308 2.08781C100.735 2.19088 101.15 2.34567 101.545 2.5492C101.9 2.73335 102.229 2.97291 102.52 3.26017C102.695 3.43676 102.854 3.63133 102.994 3.8411L104.695 2.83023C104.479 2.49485 104.231 2.18547 103.953 1.90745C103.56 1.51252 103.12 1.17542 102.645 0.904974C102.116 0.606781 101.553 0.382651 100.971 0.238052C100.307 0.0751899 99.6275 -0.0043379 98.9463 0.00106342C97.9688 -0.0150005 96.9961 0.151038 96.0712 0.491819C95.2944 0.779519 94.576 1.22445 93.9548 1.80259C93.4003 2.32673 92.9561 2.97195 92.6518 3.69523C92.3475 4.4185 92.1901 5.20322 92.1901 5.99706C92.1901 6.79089 92.3475 7.57561 92.6518 8.29889C92.9561 9.02217 93.4003 9.66738 93.9548 10.1915C94.5754 10.7706 95.294 11.2156 96.0712 11.5023C96.992 11.8438 97.9607 12.0119 98.9346 11.9993C99.6373 12.0055 100.338 11.9203 101.022 11.7456C101.617 11.591 102.191 11.3534 102.728 11.0388C103.213 10.7574 103.658 10.4044 104.051 9.99019C104.336 9.68635 104.588 9.3478 104.8 8.98142L103.091 7.97475C102.958 8.20232 102.802 8.41333 102.625 8.60392" fill="white"/>
<path d="M43.9033 0.254864C43.6764 0.254588 43.4517 0.302392 43.2421 0.395544C43.0324 0.488696 42.8419 0.625367 42.6814 0.797745C42.5208 0.970122 42.3935 1.17482 42.3066 1.40015C42.2198 1.62547 42.1751 1.867 42.1751 2.11091H45.3954V6.08097C45.3356 6.60853 45.2271 7.1284 45.0716 7.63292C44.8697 8.13516 44.5674 8.58341 44.1861 8.94578C43.7604 9.34189 43.2667 9.64468 42.7329 9.83711C41.6679 10.2907 40.482 10.2907 39.417 9.83711C38.8832 9.64468 38.3895 9.34189 37.9638 8.94578C37.5825 8.58341 37.2801 8.13516 37.0782 7.63292C36.9228 7.1284 36.8143 6.60853 36.7544 6.08097V0.254864H34.761V6.08097C34.7563 6.87465 34.9106 7.66011 35.2136 8.38391C35.5165 9.1077 35.9609 9.75283 36.5165 10.2754C37.1381 10.8524 37.8573 11.2953 38.6348 11.5799C40.2195 12.1331 41.9264 12.1331 43.5112 11.5799C44.2884 11.2932 45.007 10.8482 45.6276 10.2691C46.1832 9.74654 46.6275 9.1014 46.9305 8.37761C47.2334 7.65382 47.3878 6.86836 47.3831 6.07468V0.254864H43.9033Z" fill="white"/>
<path d="M114.502 2.1612L109.789 11.7707H107.782L113.384 0.338702V0.267397H116.361L122 11.7707H119.993L118.795 9.33792H115.204C114.971 9.33792 114.74 9.2885 114.524 9.19249C114.309 9.09647 114.113 8.95574 113.948 8.77833C113.783 8.60092 113.652 8.39029 113.563 8.15849C113.473 7.92669 113.427 7.67825 113.427 7.42735H117.855L115.267 2.1612H114.502Z" fill="white"/>
</svg>
