<svg width="32" height="32" viewBox="0 0 32 32" fill="none" xmlns="http://www.w3.org/2000/svg">
<circle cx="16" cy="16" r="16" fill="#E94E36"/>
<path fill-rule="evenodd" clip-rule="evenodd" d="M16.6295 6.375H15.2455V12.4306L12.9501 6.81594L11.6669 7.32827L14.0218 13.0883L9.5767 8.69548L8.59811 9.66256L12.8586 13.8729L7.33733 11.489L6.78326 12.7422L12.6254 15.2647H6.25V16.6324H12.6254L6.78326 19.1548L7.33733 20.4081L12.8586 18.0242L8.59811 22.2345L9.5767 23.2015L14.0218 18.8087L11.6669 24.5688L12.9501 25.0811L15.2455 19.4665V25.5221H16.6295V19.4665L18.9249 25.0811L20.208 24.5688L17.8532 18.8087L22.2983 23.2015L23.2768 22.2345L19.0164 18.0242L24.5377 20.4081L25.0917 19.1548L19.2497 16.6324H25.625V15.2647H19.2496L25.0917 12.7422L24.5377 11.489L19.0164 13.8729L23.2768 9.66255L22.2983 8.69548L17.8532 13.0883L20.208 7.32827L18.9249 6.81594L16.6295 12.4306V6.375Z" fill="white"/>
</svg>
