<svg width="240" height="240" viewBox="0 0 240 240" fill="none" xmlns="http://www.w3.org/2000/svg">
<g clip-path="url(#clip0_790_14203)">
<path fill-rule="evenodd" clip-rule="evenodd" d="M128.572 0H111.429V75.9037L82.9945 5.52698L67.0999 11.9488L96.2706 84.1487L41.2081 29.0862L29.0863 41.2081L81.8612 93.9829L13.4689 64.1017L6.60551 79.8107L78.9726 111.429H0V128.572H78.9725L6.60553 160.189L13.4689 175.898L81.8611 146.017L29.0863 198.792L41.2081 210.913L96.2706 155.851L67.0999 228.052L82.9945 234.473L111.429 164.096V240H128.572V164.096L157.006 234.473L172.9 228.052L143.73 155.851L198.792 210.913L210.913 198.792L158.138 146.017L226.531 175.898L233.394 160.189L161.028 128.572H240V111.429H161.027L233.394 79.8107L226.531 64.1017L158.138 93.9829L210.913 41.208L198.792 29.0862L143.73 84.1486L172.9 11.9488L157.006 5.52698L128.572 75.9037V0Z" fill="#E94D35"/>
</g>
<defs>
<clipPath id="clip0_790_14203">
<rect width="240" height="240" fill="white"/>
</clipPath>
</defs>
</svg>
