<svg width="32" height="32" viewBox="0 0 32 32" fill="none" xmlns="http://www.w3.org/2000/svg">
<path d="M24.4853 23.1522L16 31.6376L7.51467 23.1522C5.83646 21.474 4.69358 19.3358 4.23057 17.008C3.76756 14.6803 4.00521 12.2675 4.91346 10.0748C5.82172 7.88205 7.35979 6.00792 9.33318 4.68935C11.3066 3.37078 13.6266 2.66699 16 2.66699C18.3734 2.66699 20.6934 3.37078 22.6668 4.68935C24.6402 6.00792 26.1783 7.88205 27.0865 10.0748C27.9948 12.2675 28.2324 14.6803 27.7694 17.008C27.3064 19.3358 26.1636 21.474 24.4853 23.1522V23.1522ZM16 20.0002C17.4145 20.0002 18.771 19.4383 19.7712 18.4381C20.7714 17.4379 21.3333 16.0814 21.3333 14.6669C21.3333 13.2524 20.7714 11.8958 19.7712 10.8957C18.771 9.89546 17.4145 9.33355 16 9.33355C14.5855 9.33355 13.229 9.89546 12.2288 10.8957C11.2286 11.8958 10.6667 13.2524 10.6667 14.6669C10.6667 16.0814 11.2286 17.4379 12.2288 18.4381C13.229 19.4383 14.5855 20.0002 16 20.0002V20.0002ZM16 17.3336C15.2928 17.3336 14.6145 17.0526 14.1144 16.5525C13.6143 16.0524 13.3333 15.3741 13.3333 14.6669C13.3333 13.9596 13.6143 13.2814 14.1144 12.7813C14.6145 12.2812 15.2928 12.0002 16 12.0002C16.7072 12.0002 17.3855 12.2812 17.8856 12.7813C18.3857 13.2814 18.6667 13.9596 18.6667 14.6669C18.6667 15.3741 18.3857 16.0524 17.8856 16.5525C17.3855 17.0526 16.7072 17.3336 16 17.3336Z" fill="white"/>
</svg>
