<svg width="24" height="24" viewBox="0 0 24 24" fill="none" xmlns="http://www.w3.org/2000/svg">
<path d="M8.67576 7.3349C8.67558 7.68851 8.53446 8.02755 8.28343 8.27746C8.03241 8.52737 7.69204 8.66767 7.33721 8.6675C6.98238 8.66732 6.64216 8.52668 6.39138 8.27652C6.14061 8.02636 5.99982 7.68717 6 7.33357C6.00018 6.97997 6.1413 6.64092 6.39233 6.39101C6.64336 6.1411 6.98372 6.0008 7.33855 6.00098C7.69338 6.00115 8.0336 6.14179 8.28438 6.39195C8.53515 6.64211 8.67594 6.9813 8.67576 7.3349V7.3349ZM8.7159 9.65477H6.04014V18.001H8.7159V9.65477ZM12.9436 9.65477H10.2812V18.001H12.9168V13.6212C12.9168 11.1814 16.1077 10.9547 16.1077 13.6212V18.001H18.75V12.7146C18.75 8.6015 14.0273 8.75482 12.9168 10.7747L12.9436 9.65477V9.65477Z" fill="#BDB8AD"/>
</svg>
