<svg width="24" height="24" viewBox="0 0 24 24" fill="none" xmlns="http://www.w3.org/2000/svg">
<path d="M19.6215 7.24292C19.0489 7.49619 18.4417 7.66253 17.82 7.73642C18.4753 7.3445 18.9658 6.72768 19.2 6.00092C18.585 6.36692 17.9108 6.62342 17.208 6.76217C16.736 6.25711 16.1103 5.92214 15.4282 5.80936C14.7462 5.69658 14.046 5.81229 13.4365 6.13851C12.827 6.46473 12.3423 6.98318 12.0578 7.61327C11.7734 8.24335 11.7051 8.94976 11.8635 9.62267C10.6163 9.56016 9.39626 9.23606 8.28247 8.67142C7.16869 8.10678 6.1861 7.31421 5.39851 6.34517C5.11973 6.82401 4.97323 7.36834 4.97401 7.92242C4.97401 9.00992 5.52751 9.97067 6.36901 10.5332C5.87102 10.5175 5.38398 10.383 4.94851 10.1409V10.1799C4.94866 10.9042 5.19929 11.6061 5.65789 12.1667C6.1165 12.7273 6.75487 13.112 7.46476 13.2557C7.00247 13.3809 6.51774 13.3994 6.04726 13.3097C6.24741 13.9331 6.63751 14.4783 7.16295 14.869C7.68839 15.2597 8.32286 15.4763 8.97751 15.4884C8.32687 15.9994 7.58189 16.3772 6.78517 16.6001C5.98845 16.8229 5.1556 16.8866 4.33426 16.7874C5.76803 17.7095 7.43708 18.199 9.14176 18.1974C14.9115 18.1974 18.0668 13.4177 18.0668 9.27242C18.0668 9.13742 18.063 9.00092 18.057 8.86742C18.6712 8.42355 19.2012 7.87369 19.6223 7.24367L19.6215 7.24292Z" fill="#BDB8AD"/>
</svg>
