<svg width="32" height="32" viewBox="0 0 32 32" fill="none" xmlns="http://www.w3.org/2000/svg">
<path d="M9.14286 4H22.8571C23.1602 4 23.4509 4.12643 23.6653 4.35147C23.8796 4.57652 24 4.88174 24 5.2V26.8C24 27.1183 23.8796 27.4235 23.6653 27.6485C23.4509 27.8736 23.1602 28 22.8571 28H9.14286C8.83975 28 8.54906 27.8736 8.33474 27.6485C8.12041 27.4235 8 27.1183 8 26.8V5.2C8 4.88174 8.12041 4.57652 8.33474 4.35147C8.54906 4.12643 8.83975 4 9.14286 4ZM16 22C15.6969 22 15.4062 22.1264 15.1919 22.3515C14.9776 22.5765 14.8571 22.8817 14.8571 23.2C14.8571 23.5183 14.9776 23.8235 15.1919 24.0485C15.4062 24.2736 15.6969 24.4 16 24.4C16.3031 24.4 16.5938 24.2736 16.8081 24.0485C17.0224 23.8235 17.1429 23.5183 17.1429 23.2C17.1429 22.8817 17.0224 22.5765 16.8081 22.3515C16.5938 22.1264 16.3031 22 16 22Z" fill="white"/>
</svg>
