<svg width="24" height="24" viewBox="0 0 24 24" fill="none" xmlns="http://www.w3.org/2000/svg">
<path d="M18 19.5H6C5.80109 19.5 5.61032 19.421 5.46967 19.2803C5.32902 19.1397 5.25 18.9489 5.25 18.75V5.25C5.25 5.05109 5.32902 4.86032 5.46967 4.71967C5.61032 4.57902 5.80109 4.5 6 4.5H18C18.1989 4.5 18.3897 4.57902 18.5303 4.71967C18.671 4.86032 18.75 5.05109 18.75 5.25V18.75C18.75 18.9489 18.671 19.1397 18.5303 19.2803C18.3897 19.421 18.1989 19.5 18 19.5ZM9 8.25V9.75H15V8.25H9ZM9 11.25V12.75H15V11.25H9ZM9 14.25V15.75H12.75V14.25H9Z" fill="#131416"/>
</svg>
