<svg width="256" height="256" viewBox="0 0 256 256" fill="none" xmlns="http://www.w3.org/2000/svg">
<circle cx="128" cy="128" r="128" fill="#E94E36"/>
<path fill-rule="evenodd" clip-rule="evenodd" d="M133.036 51H121.964V99.4444L103.601 54.5275L93.3354 58.6262L112.175 104.707L76.6136 69.5638L68.7849 77.3005L102.869 110.983L58.6987 91.912L54.2661 101.938L101.003 122.118H50V133.059H101.003L54.2661 153.238L58.6987 163.265L102.869 144.193L68.7849 177.876L76.6136 185.612L112.175 150.47L93.3354 196.551L103.601 200.649L121.964 155.732V204.176H133.036V155.732L151.399 200.649L161.664 196.551L142.826 150.47L178.386 185.612L186.215 177.876L152.131 144.193L196.301 163.265L200.734 153.238L153.997 133.059H205V122.118H153.996L200.734 101.938L196.301 91.912L152.131 110.983L186.215 77.3004L178.386 69.5638L142.826 104.707L161.664 58.6262L151.399 54.5275L133.036 99.4444V51Z" fill="white"/>
</svg>
